<?xml version="1.0" encoding="utf-8"?>
<!-- Generator: Adobe Illustrator 22.1.0, SVG Export Plug-In . SVG Version: 6.00 Build 0)  -->
<svg version="1.1" xmlns="http://www.w3.org/2000/svg" xmlns:xlink="http://www.w3.org/1999/xlink" x="0px" y="0px"
	 viewBox="0 0 345.6 281" style="enable-background:new 0 0 345.6 281;" xml:space="preserve">
<style type="text/css">
	.st0{opacity:0.5;}
	.st1{display:none;}
	.st2{display:inline;fill:#7A74B5;}
	.st3{display:inline;fill:#FBF069;}
	.st4{display:inline;fill:#A68567;}
	.st5{display:inline;fill:#6DB292;}
	.st6{display:inline;fill:#F07893;}
</style>
<g id="Layer_1">
	<g class="st0">
		<defs>
			<rect id="SVGID_1_" y="3.3" class="st0" width="344.4" height="286.1"/>
		</defs>
		<clipPath id="SVGID_2_">
			<use xlink:href="#SVGID_1_"  style="overflow:visible;"/>
		</clipPath>
		<g style="clip-path:url(#SVGID_2_);">

				<image style="overflow:visible;" width="1435" height="1192" xlink:href="AF7C289091739496.jpg"  transform="matrix(0.24 0 0 0.24 0 3.314)">
			</image>
		</g>
	</g>
</g>
<g id="Layer_2" class="st1">
	<circle id="CPP" class="st2" cx="44.3" cy="203.1" r="4.4"/>
	<circle id="NDB" class="st2" cx="119.1" cy="225.1" r="4.4"/>
	<circle id="SL" class="st2" cx="120.8" cy="161.3" r="4.4"/>
	<circle id="NFL" class="st2" cx="74.5" cy="141.9" r="4.4"/>
	<circle id="HL" class="st2" cx="55.1" cy="89.1" r="4.4"/>
	<circle id="HD" class="st2" cx="105" cy="82" r="4.4"/>
	<circle id="Hp-VM" class="st2" cx="263" cy="31.8" r="4.4"/>
	<circle id="MC" class="st3" cx="228.6" cy="96.3" r="4.4"/>
	<circle id="Field_L1" class="st3" cx="254.2" cy="100.7" r="4.4"/>
	<circle id="Field_L2" class="st3" cx="265.7" cy="94.5" r="4.4"/>
	<circle id="Field_L3" class="st3" cx="270.1" cy="83.9" r="4.4"/>
	<circle id="AIvm" class="st3" cx="247" cy="183.1" r="4.4"/>
	<circle id="NSTL" class="st4" cx="141.4" cy="190.4" r="4.4"/>
	<circle id="TuO" class="st4" cx="176.1" cy="200.5" r="4.4"/>
	<circle id="AM" class="st4" cx="216.3" cy="218.1" r="4.4"/>
	<circle id="PoA" class="st4" cx="260.8" cy="215" r="4.4"/>
	<circle id="SpA" class="st4" cx="247" cy="201" r="4.4"/>
	<circle id="NCVl" class="st4" cx="248.6" cy="165.2" r="4.4"/>
	<circle id="NCC" class="st4" cx="293.6" cy="126.2" r="4.4"/>
	<circle id="TPO" class="st5" cx="163.7" cy="62.1" r="4.4"/>
	<circle id="MVL" class="st5" cx="160.8" cy="97.1" r="4.4"/>
	<circle id="NIL" class="st5" cx="117.6" cy="141.9" r="4.4"/>
	<circle id="HA" class="st6" cx="77.7" cy="70.9" r="4.4"/>
	<circle id="IHA" class="st6" cx="82.3" cy="81" r="4.4"/>
	<circle id="HI" class="st6" cx="94.9" cy="91.9" r="4.4"/>
	<circle id="MM" class="st6" cx="164.7" cy="120.8" r="4.4"/>
	<circle id="NMm" class="st6" cx="163.7" cy="137.5" r="4.4"/>
	<circle id="NIMl" class="st6" cx="176.1" cy="141.9" r="4.4"/>
	<circle id="MD" class="st6" cx="241.7" cy="65.5" r="4.4"/>
	<circle id="NCM" class="st6" cx="298" cy="108.5" r="4.4"/>
	<circle id="AA" class="st6" cx="210.3" cy="193.5" r="4.4"/>
	<circle id="AV" class="st6" cx="245.5" cy="226.7" r="4.4"/>
	<circle id="VP" class="st6" cx="167.3" cy="236.7" r="4.4"/>
	<circle id="StM" class="st6" cx="142.5" cy="215" r="4.4"/>
	<circle id="Ac" class="st6" cx="127.6" cy="239.9" r="4.4"/>
	<circle id="Bas" class="st6" cx="100.9" cy="236.7" r="4.4"/>
	<circle id="NFM" class="st6" cx="81.4" cy="232.3" r="4.4"/>
	<circle id="Ep" class="st5" cx="200.6" cy="117.3" r="4.4"/>
	<circle id="Ee" class="st5" cx="188.4" cy="121.7" r="4.4"/>
	<circle id="Ei_" class="st5" cx="184.9" cy="133.1" r="4.4"/>
	<circle id="StL" class="st5" cx="174" cy="186.5" r="4.4"/>
	<circle id="GP" class="st5" cx="164.7" cy="219.5" r="4.4"/>
	<circle id="CDL" class="st2" cx="212" cy="51.1" r="8.5"/>
	<circle id="NCL" class="st6" cx="245.5" cy="130.6" r="8.5"/>
	<circle id="AD" class="st6" cx="227.6" cy="179.7" r="8.5"/>
	<circle id="AI" class="st6" cx="227.6" cy="206.4" r="8.5"/>
	<circle id="APH" class="st2" cx="293.9" cy="46.1" r="8.5"/>
	<circle id="Hp-DM" class="st2" cx="276.6" cy="34.2" r="4.4"/>
	<circle id="CPi" class="st2" cx="198.2" cy="212.3" r="4.4"/>
	<circle id="TnA" class="st2" cx="218" cy="231.1" r="4.4"/>
	<circle id="SM" class="st2" cx="132" cy="163.9" r="4.4"/>
	<circle id="BO" class="st2" cx="44.3" cy="252.5" r="4.4"/>
</g>
</svg>
